<svg fill="none" height="48" viewBox="0 0 42 48" width="42" xmlns="http://www.w3.org/2000/svg"><path clip-rule="evenodd" d="m22.1017 20.8596 9.8995-9.8994-2.1213-2.12137-7.3389 7.33887v-13.1777h-3v13.1777l-7.3388-7.33887-2.1213 2.12137 9.8995 9.8994 1.0606 1.0607zm2.1207 2.1214 9.8995-9.8995 2.1213 2.1213-7.3388 7.3388h13.0956v3h-13.0956l7.3388 7.3389-2.1213 2.1213-9.8995-9.8995-1.0607-1.0607zm-16.26224 12.0208 9.89944-9.8995 1.0607-1.0607-1.0607-1.0606-9.89944-9.8995-2.12133 2.1213 7.33887 7.3388h-13.17574688v3h13.17574688l-7.33887 7.3389zm12.02024-7.7782-9.8995 9.8995 2.1213 2.1213 7.3388-7.3388v13.0944h3v-13.0944l7.3389 7.3388 2.1213-2.1213-9.8995-9.8995-1.0607-1.0607z" fill="#0A0D12" fill-rule="evenodd"/></svg>